HIERARCHY
ROOT Hips
{
	OFFSET 0.000000 0.000000 0.000000
	CHANNELS 6 Xposition Yposition Zposition Zrotation Yrotation Xrotation 
	JOINT LowerBack
	{
		OFFSET 0.000000 0.000000 0.000000
		CHANNELS 3 Zrotation Yrotation Xrotation
		JOINT Spine
		{
			OFFSET 0.028270 2.035590 -0.193380
			CHANNELS 3 Zrotation Yrotation Xrotation
			JOINT Spine1
			{
				OFFSET 0.056720 2.048850 -0.042750
				CHANNELS 3 Zrotation Yrotation Xrotation
				JOINT Neck
				{
					OFFSET 0.000000 0.000000 0.000000
					CHANNELS 3 Zrotation Yrotation Xrotation
					JOINT Neck1
					{
						OFFSET -0.054170 1.746240 0.172020
						CHANNELS 3 Zrotation Yrotation Xrotation
						JOINT Head
						{
							OFFSET 0.104070 1.761360 -0.123970
							CHANNELS 3 Zrotation Yrotation Xrotation
							End Site
							{
								OFFSET 0.000000 0.000000 0.000000
							}
						}
					}
				}
				JOINT LeftShoulder
				{
					OFFSET 0.000000 0.000000 0.000000
					CHANNELS 3 Zrotation Yrotation Xrotation
					JOINT LeftArm
					{
						OFFSET 3.362410 1.200890 -0.311210
						CHANNELS 3 Zrotation Yrotation Xrotation
						JOINT LeftForeArm
						{
							OFFSET 4.983000 -0.000000 -0.000000
							CHANNELS 3 Zrotation Yrotation Xrotation
							JOINT LeftHand
							{
								OFFSET 3.483560 -0.000000 -0.000000
								CHANNELS 3 Zrotation Yrotation Xrotation
								JOINT LeftFingerBase
								{
									OFFSET 0.000000 0.000000 0.000000
									CHANNELS 3 Zrotation Yrotation Xrotation
									JOINT LeftHandIndex1
									{
										OFFSET 0.715260 -0.000000 -0.000000
										CHANNELS 3 Zrotation Yrotation Xrotation
										End Site
										{
											OFFSET 0.000000 0.000000 0.000000
										}
									}
								}
								JOINT LThumb
								{
									OFFSET 0.000000 0.000000 0.000000
									CHANNELS 3 Zrotation Yrotation Xrotation
									End Site
									{
										OFFSET 0.000000 0.000000 0.000000
									}
								}
							}
						}
					}
				}
				JOINT RightShoulder
				{
					OFFSET 0.000000 0.000000 0.000000
					CHANNELS 3 Zrotation Yrotation Xrotation
					JOINT RightArm
					{
						OFFSET -3.136600 1.374050 -0.404650
						CHANNELS 3 Zrotation Yrotation Xrotation
						JOINT RightForeArm
						{
							OFFSET -5.241900 -0.000000 -0.000000
							CHANNELS 3 Zrotation Yrotation Xrotation
							JOINT RightHand
							{
								OFFSET -3.444170 -0.000000 -0.000000
								CHANNELS 3 Zrotation Yrotation Xrotation
								JOINT RightFingerBase
								{
									OFFSET 0.000000 0.000000 0.000000
									CHANNELS 3 Zrotation Yrotation Xrotation
									JOINT RightHandIndex1
									{
										OFFSET -0.622530 -0.000000 -0.000000
										CHANNELS 3 Zrotation Yrotation Xrotation
										End Site
										{
											OFFSET 0.000000 0.000000 0.000000
										}
									}
								}
								JOINT RThumb
								{
									OFFSET 0.000000 0.000000 0.000000
									CHANNELS 3 Zrotation Yrotation Xrotation
									End Site
									{
										OFFSET 0.000000 0.000000 0.000000
									}
								}
							}
						}
					}
				}
			}
		}
	}
}
}
MOTION
Frames: 12
Frame Time: 0.008333
3.529231 17.244763 1.051725 -175.155431 -76.218514 -173.411557 2.095285 -6.462528 -4.741745 0.082297 -6.684324 -3.732461 -7.350985 -6.641416 -1.790720 12.383030 -9.618682 -1.070794 -2.351248 -0.260843 1.873309 0.000000 0.000000 0.000000 18.336855 -10.933384 1.823064 3.545167 -54.449611 -60.402957 2.073314 -5.714180 -0.036060 4.203532 -1.263219 -0.064108 0.012785 0.477167 0.000000 0.000000 0.000000 0.000000 0.000000 0.000000 0.000000 5.506581 -9.123979 -4.300126 87.515058 24.471160 39.295315 -178.998419 60.295865 179.869479 -10.648334 14.573876 -1.484004 0.173309 -0.979940 -0.000000 0.000000 0.000000 0.000000 0.000000 0.000000 0.000000 
3.525358 17.242575 1.048760 -175.549735 -76.124786 -173.118292 2.117923 -6.399789 -4.726532 0.081786 -6.621279 -3.764597 -7.349274 -6.591374 -1.910895 12.275951 -9.728677 -0.938069 -2.392544 -0.265240 1.912053 0.000000 0.000000 0.000000 17.798641 -10.821861 1.473652 1.205938 -54.254578 -57.782388 2.284915 -8.904217 -0.039774 4.282208 -1.490647 -0.074746 0.031906 0.512513 0.000000 0.000000 0.000000 0.000000 0.000000 0.000000 0.000000 5.417281 -9.217112 -4.210382 87.534311 24.256602 39.200031 -179.008670 60.316242 179.869109 -10.649913 14.530782 -1.480279 0.173731 -0.981833 -0.000000 0.000000 0.000000 0.000000 0.000000 0.000000 0.000000 
3.522084 17.240153 1.045241 -175.932353 -76.062817 -172.852639 2.142389 -6.324445 -4.701341 0.075543 -6.545894 -3.798891 -7.365552 -6.529150 -2.043632 12.164894 -9.829730 -0.781757 -2.437651 -0.270194 1.957435 0.000000 0.000000 0.000000 17.171915 -10.711234 1.105986 -1.244622 -53.991242 -54.908868 2.478895 -12.453427 -0.043830 4.383597 -1.639639 -0.083052 0.051134 0.547988 0.000000 0.000000 0.000000 0.000000 0.000000 0.000000 0.000000 5.331189 -9.313172 -4.110764 87.550325 24.017432 39.078880 -179.013452 60.346608 179.868438 -10.672576 14.480969 -1.478847 0.174334 -0.983657 -0.000000 0.000000 0.000000 0.000000 0.000000 0.000000 0.000000 
3.519247 17.237573 1.041351 -176.286279 -76.031587 -172.625928 2.175951 -6.238454 -4.673889 0.064674 -6.460986 -3.833602 -7.400921 -6.456579 -2.175431 12.050233 -9.920076 -0.611893 -2.484614 -0.275453 2.006574 0.000000 0.000000 0.000000 16.456394 -10.573654 0.735238 -3.724541 -53.667113 -51.951026 2.639355 -16.306084 -0.048256 4.531900 -1.693892 -0.088824 0.069255 0.582002 0.000000 0.000000 0.000000 0.000000 0.000000 0.000000 0.000000 5.248918 -9.414476 -4.006776 87.565615 23.767563 38.945053 -179.012274 60.387360 179.867520 -10.711335 14.428327 -1.479213 0.174913 -0.985316 -0.000000 0.000000 0.000000 0.000000 0.000000 0.000000 0.000000 
3.516849 17.234898 1.037093 -176.635597 -76.025705 -172.418300 2.207704 -6.144908 -4.635289 0.047076 -6.368263 -3.865130 -7.454410 -6.374479 -2.299275 11.938913 -10.005133 -0.436241 -2.532574 -0.280879 2.057201 0.000000 0.000000 0.000000 15.719182 -10.399775 0.361521 -6.311717 -53.265530 -49.024458 2.756969 -20.489391 -0.052949 4.708575 -1.703935 -0.093560 0.086937 0.614823 0.000000 0.000000 0.000000 0.000000 0.000000 0.000000 0.000000 5.181409 -9.526810 -3.899643 87.576422 23.525138 38.809514 -179.007566 60.438606 179.866447 -10.763091 14.371146 -1.480875 0.175581 -0.986722 -0.000000 0.000000 0.000000 0.000000 0.000000 0.000000 0.000000 
3.514391 17.232312 1.032675 -176.947692 -76.041246 -172.248750 2.251492 -6.045600 -4.601306 0.026656 -6.271259 -3.892907 -7.523032 -6.285650 -2.400867 11.826755 -10.081509 -0.267101 -2.579644 -0.286186 2.105825 0.000000 0.000000 0.000000 14.928237 -10.156315 0.005660 -8.887680 -52.816887 -46.232998 2.813076 -24.923779 -0.057804 4.938901 -1.603428 -0.094668 0.102320 0.643804 0.000000 0.000000 0.000000 0.000000 0.000000 0.000000 0.000000 5.121197 -9.646919 -3.796210 87.586426 23.300373 38.684922 -178.999406 60.499837 179.865302 -10.818851 14.317551 -1.483334 0.176033 -0.987936 -0.000000 0.000000 0.000000 0.000000 0.000000 0.000000 0.000000 
3.511642 17.229890 1.028202 -177.220910 -76.071203 -172.114453 2.307237 -5.942151 -4.575537 0.004561 -6.171644 -3.915828 -7.603204 -6.191251 -2.474216 11.713843 -10.150554 -0.111438 -2.625076 -0.291245 2.150452 0.000000 0.000000 0.000000 14.104203 -9.838859 -0.324163 -11.464472 -52.311824 -43.604826 2.797091 -29.605581 -0.062751 5.229597 -1.377651 -0.090954 0.114700 0.668167 0.000000 0.000000 0.000000 0.000000 0.000000 0.000000 0.000000 5.067046 -9.773537 -3.698760 87.595506 23.101537 38.578332 -178.989337 60.569275 179.864173 -10.871241 14.271038 -1.485990 0.176148 -0.989062 -0.000000 0.000000 0.000000 0.000000 0.000000 0.000000 0.000000 
3.508520 17.227648 1.023670 -177.472301 -76.107819 -171.999922 2.366152 -5.836137 -4.553522 -0.019444 -6.069990 -3.932134 -7.689921 -6.091413 -2.517694 11.604086 -10.218300 0.025697 -2.668941 -0.296001 2.189600 0.000000 0.000000 0.000000 13.300766 -9.457330 -0.626501 -14.114159 -51.731756 -41.155246 2.704170 -34.543378 -0.067542 5.549091 -1.069833 -0.082621 0.124709 0.688488 -0.000000 0.000000 0.000000 0.000000 0.000000 0.000000 0.000000 5.022740 -9.908963 -3.607079 87.598691 22.937974 38.493092 -178.980015 60.641578 179.863139 -10.916624 14.230609 -1.488143 0.176080 -0.990198 -0.000000 0.000000 0.000000 0.000000 0.000000 0.000000 0.000000 
3.504795 17.225661 1.019109 -177.700197 -76.144238 -171.902694 2.427426 -5.728070 -4.538978 -0.043735 -5.966913 -3.940969 -7.778169 -5.986354 -2.527022 11.496462 -10.289609 0.138132 -2.711438 -0.300378 2.221481 0.000000 0.000000 0.000000 12.522259 -9.011009 -0.893807 -16.809835 -51.083448 -38.880337 2.531972 -39.688982 -0.072144 5.898282 -0.684850 -0.069077 0.131640 0.704590 -0.000000 0.000000 0.000000 0.000000 0.000000 0.000000 0.000000 4.985486 -10.053921 -3.522773 87.595299 22.815444 38.432580 -178.973399 60.711274 179.862268 -10.950732 14.198487 -1.489691 0.175897 -0.991521 -0.000000 0.000000 0.000000 0.000000 0.000000 0.000000 0.000000 
3.500007 17.223968 1.014590 -177.885171 -76.175356 -171.831643 2.498165 -5.616610 -4.543245 -0.065667 -5.862095 -3.944745 -7.864580 -5.875925 -2.504175 11.385245 -10.358106 0.227687 -2.752468 -0.304386 2.246610 0.000000 0.000000 0.000000 11.768720 -8.526600 -1.116216 -19.528235 -50.337992 -36.746949 2.281892 -45.015065 -0.076485 6.282017 -0.197855 -0.047928 0.134616 0.715931 -0.000000 0.000000 0.000000 0.000000 0.000000 0.000000 0.000000 4.942531 -10.196895 -3.446261 87.587443 22.721087 38.388362 -178.968164 60.774117 179.861548 -10.968351 14.179537 -1.490236 0.175309 -0.993260 -0.000000 0.000000 0.000000 0.000000 0.000000 0.000000 0.000000 
3.494154 17.222545 1.010160 -178.029645 -76.195946 -171.784920 2.575892 -5.501133 -4.566486 -0.084502 -5.754734 -3.944363 -7.945390 -5.759445 -2.454061 11.268155 -10.421602 0.297420 -2.792724 -0.308095 2.265809 0.000000 0.000000 0.000000 11.063324 -8.033213 -1.291869 -22.277533 -49.470077 -34.729869 1.964510 -50.490132 -0.080422 6.677668 0.360699 -0.019278 0.133719 0.723053 -0.000000 0.000000 0.000000 0.000000 0.000000 0.000000 0.000000 4.887239 -10.329928 -3.376450 87.575267 22.645661 38.350958 -178.963925 60.824161 179.860961 -10.968509 14.173967 -1.489674 0.174287 -0.995601 -0.000000 0.000000 0.000000 0.000000 0.000000 0.000000 0.000000 
3.487140 17.221342 1.005672 -178.154061 -76.201636 -171.742846 2.650994 -5.382101 -4.601342 -0.100120 -5.644435 -3.936514 -8.014512 -5.636326 -2.370166 11.147564 -10.498748 0.335797 -2.833822 -0.311427 2.275758 0.000000 0.000000 0.000000 10.405334 -7.491697 -1.429733 -25.032347 -48.564437 -32.800226 1.603900 -55.997004 -0.084091 7.062089 0.904240 0.012377 0.129264 0.727567 -0.000000 0.000000 0.000000 0.000000 0.000000 0.000000 0.000000 4.828014 -10.467554 -3.314980 87.555427 22.605746 38.327529 -178.966127 60.859621 179.860594 -10.956957 14.175275 -1.488402 0.173594 -0.998471 -0.000000 0.000000 0.000000 0.000000 0.000000 0.000000 0.000000 
